<?xml version="1.0" encoding="UTF-8"?>
<svg version="1.1" xmlns="http://www.w3.org/2000/svg" width="668" height="374">
<path d="M0 0 C1.14490402 -0.00860046 2.28980804 -0.01720093 3.46940613 -0.02606201 C5.34033936 -0.03245193 5.34033936 -0.03245193 7.24906921 -0.03897095 C8.58343719 -0.04687996 9.91780306 -0.05514939 11.25216675 -0.06375122 C15.62831095 -0.08989768 20.00446431 -0.10528002 24.38066101 -0.11953735 C25.89372957 -0.12490167 27.40679809 -0.13027919 28.91986656 -0.13566971 C35.22254898 -0.15729521 41.52522893 -0.17602456 47.82793903 -0.1872921 C56.8216835 -0.20348203 65.81499263 -0.23654199 74.80857307 -0.29369295 C81.15197102 -0.33260823 87.49525365 -0.35195059 93.83876771 -0.35721266 C97.61653967 -0.36083923 101.3938466 -0.37256697 105.17148781 -0.4053154 C144.14514314 -0.72666247 144.14514314 -0.72666247 157.26737976 11.15390015 C164.37957075 18.60078248 170.37202385 29.53276485 170.41455078 39.88293457 C170.42528374 41.67444695 170.42528374 41.67444695 170.43623352 43.50215149 C170.43892242 44.81438187 170.44161133 46.12661224 170.44438171 47.47860718 C170.45064771 48.87329782 170.45729464 50.2679868 170.46429443 51.66267395 C170.48532658 56.24567505 170.49569819 60.82867643 170.50566101 65.41171265 C170.50970933 66.99117933 170.51382627 68.57064583 170.51801109 70.15011215 C170.53706341 77.57342905 170.55129257 84.99673603 170.55962306 92.42007267 C170.56938647 100.97834618 170.5956822 109.53636043 170.63612396 118.09454262 C170.66633311 124.71549796 170.6810966 131.33637921 170.68440408 137.95740211 C170.68674972 141.90872126 170.69564603 145.85976347 170.72086525 149.81100845 C170.74423438 153.53260822 170.74834412 157.25375047 170.73810387 160.97540474 C170.73737646 162.98113563 170.75640682 164.98684375 170.77616882 166.99247742 C170.73426657 174.3017924 169.94584319 179.78872524 166.26737976 186.15390015 C165.82394226 186.9634314 165.38050476 187.77296265 164.92362976 188.60702515 C163.7246809 190.47025649 162.51128758 192.32034771 161.26737976 194.15390015 C160.68987976 195.02015015 160.11237976 195.88640015 159.51737976 196.77890015 C151.92345369 204.79471099 140.55125053 209.75651112 129.52766991 210.28532791 C128.52890642 210.28830257 127.53014294 210.29127724 126.50111389 210.29434204 C124.77291916 210.30290726 124.77291916 210.30290726 123.0098114 210.31164551 C121.75466736 210.31276337 120.49952332 210.31388123 119.2063446 210.31503296 C117.86386479 210.31966518 116.52138629 210.32469038 115.1789093 210.33007812 C111.53808753 210.34316818 107.89728417 210.34964083 104.25644255 210.35408878 C101.97769266 210.35702595 99.69894773 210.36113204 97.42020035 210.36559296 C90.27880133 210.37926105 83.13741374 210.38893018 75.99600255 210.39279485 C67.77457654 210.39726931 59.5533173 210.41479154 51.33194196 210.44379544 C44.96314102 210.46547722 38.59438677 210.47550264 32.22554934 210.47683597 C28.42850802 210.47787967 24.63162362 210.48369371 20.83462143 210.50165558 C17.25749715 210.51824835 13.68064583 210.52023811 10.10349655 210.51151657 C8.18168384 210.51039052 6.25987974 210.52402236 4.33811951 210.53826904 C-9.43172224 210.47267182 -22.53541962 206.84682303 -32.84590149 197.31015015 C-39.29334827 189.94163954 -43.9454926 180.94452504 -44.02696228 171.07324219 C-44.04127289 169.87647858 -44.0555835 168.67971497 -44.07032776 167.44668579 C-44.07570557 166.14688782 -44.08108337 164.84708984 -44.08662415 163.50790405 C-44.09916862 162.11427139 -44.11246355 160.72064531 -44.12644958 159.32702637 C-44.16837854 154.76155179 -44.18924919 150.19607715 -44.20918274 145.63046265 C-44.21728543 144.05145578 -44.2255195 142.47244957 -44.2338829 140.89344406 C-44.27196361 133.46746318 -44.30042277 126.0415216 -44.31710684 118.61546195 C-44.33660322 110.08127521 -44.38912113 101.54813268 -44.47010863 93.01431334 C-44.53074163 86.39488058 -44.56007413 79.77574432 -44.56666887 73.1560396 C-44.57133757 69.21368787 -44.58882193 65.27245275 -44.63959122 61.33040237 C-44.88088836 41.56774934 -44.34776882 26.67746309 -30.73262024 11.15390015 C-21.62583065 4.04784464 -11.56544553 0.06494822 0 0 Z " fill="#A9DDE3" transform="translate(270.7326202392578,81.84609985351563)"/>
<path d="M0 0 C2.20464886 0.70218324 4.40781136 1.4090523 6.609375 2.12084961 C11.25640756 3.412003 15.87285327 3.58105722 20.671875 3.75390625 C21.54481201 3.79229614 22.41774902 3.83068604 23.31713867 3.87023926 C25.4480843 3.96285736 27.57948035 4.04501361 29.7109375 4.125 C29.80377016 16.61672879 29.87477002 29.10837501 29.91818619 41.60037899 C29.93902771 47.40143489 29.96728294 53.20225412 30.01269531 59.00317383 C30.05627505 64.60528948 30.08010043 70.20717801 30.09044647 75.80945015 C30.09781605 77.94281144 30.11220704 80.07616082 30.13385773 82.20942497 C30.16305254 85.20621111 30.16688674 88.2020683 30.16503906 91.19897461 C30.17942017 92.07363876 30.19380127 92.94830292 30.20861816 93.84947205 C30.14624525 103.24790461 25.87643527 110.51092211 20.7109375 118.125 C20.1334375 118.99125 19.5559375 119.8575 18.9609375 120.75 C11.36701143 128.76581085 -0.00519173 133.72761098 -11.02877235 134.25642776 C-12.02753584 134.25940243 -13.02629932 134.26237709 -14.05532837 134.26544189 C-15.7835231 134.27400711 -15.7835231 134.27400711 -17.54663086 134.28274536 C-18.8017749 134.28386322 -20.05691895 134.28498108 -21.35009766 134.28613281 C-22.69257747 134.29076503 -24.03505597 134.29579023 -25.37753296 134.30117798 C-29.01835474 134.31426803 -32.65915809 134.32074069 -36.29999971 134.32518864 C-38.5787496 134.32812581 -40.85749453 134.33223189 -43.13624191 134.33669281 C-50.27764093 134.35036091 -57.41902852 134.36003004 -64.56043971 134.3638947 C-72.78186572 134.36836916 -81.00312496 134.38589139 -89.2245003 134.4148953 C-95.59330124 134.43657708 -101.9620555 134.44660249 -108.33089292 134.44793582 C-112.12793424 134.44897952 -115.92481864 134.45479356 -119.72182083 134.47275543 C-123.29894511 134.4893482 -126.87579644 134.49133796 -130.45294571 134.48261642 C-132.37475842 134.48149037 -134.29656252 134.49512222 -136.21832275 134.5093689 C-149.9881645 134.44377167 -163.09186188 130.81792288 -173.40234375 121.28125 C-180.70790166 112.93204096 -184.63498998 103.70186267 -184.484375 92.6640625 C-184.4815451 91.87349457 -184.47871521 91.08292664 -184.47579956 90.2684021 C-184.46467205 87.76210916 -184.43958176 85.25618355 -184.4140625 82.75 C-184.40402308 81.04297394 -184.39489891 79.33594223 -184.38671875 77.62890625 C-184.36475713 73.4607976 -184.33027921 69.29296092 -184.2890625 65.125 C-183.61029053 65.25197266 -182.93151855 65.37894531 -182.23217773 65.50976562 C-142.63849459 72.82632477 -87.86973798 81.45944574 -50.2265625 62.58984375 C-40.56719712 54.48471136 -37.76284341 40.5976759 -33.96630859 29.06274414 C-28.17096341 11.55446573 -22.05609744 -5.86765537 0 0 Z " fill="#A9DDE3" transform="translate(411.2890625,157.875)"/>
<path d="M0 0 C6.06344103 2.12396699 11.74764293 4.95909407 17.42578125 7.94921875 C22.61497922 10.46127862 27.53869519 11.63104967 33.25 12.31640625 C33.25 13.63640625 33.25 14.95640625 33.25 16.31640625 C22.61725323 16.72448608 13.7013313 16.5465543 3.5390625 13.2265625 C-2.26938191 11.61923762 -9.0250119 10.71259193 -14.71875 13.1640625 C-21.94481991 18.60204878 -25.00104612 28.10376756 -27.6875 36.31640625 C-28.3803668 38.36106498 -29.07438331 40.40533445 -29.76953125 42.44921875 C-30.10549316 43.44598633 -30.44145508 44.44275391 -30.78759766 45.46972656 C-39.50115814 71.24347471 -39.50115814 71.24347471 -49.75 77.31640625 C-86.53324239 92.62829842 -143.01305624 88.574675 -180.75 77.31640625 C-180.75 76.65640625 -180.75 75.99640625 -180.75 75.31640625 C-172.48926784 75.21385923 -164.29588893 75.29402536 -156.05078125 75.8046875 C-146.22091493 76.36110886 -136.40603107 76.53608126 -126.56152344 76.55664062 C-123.75165781 76.56640049 -120.94251005 76.59761132 -118.1328125 76.62890625 C-95.93813108 76.75831494 -67.37188407 74.35728339 -49.50390625 59.44140625 C-42.59141159 52.06807862 -39.2774179 42.43205323 -35.86328125 33.1015625 C-34.75 30.31640625 -34.75 30.31640625 -32.75 27.31640625 C-32.29451115 25.82773536 -31.88218814 24.32555943 -31.5 22.81640625 C-28.65222243 13.12546169 -24.60039049 5.53893397 -15.75 0.31640625 C-11.09918203 -2.00900273 -4.90506224 -1.21929814 0 0 Z " fill="#F5FCFC" transform="translate(407.75,145.68359375)"/>
<path d="M0 0 C1.11994049 0.95864778 2.23969664 1.91751092 3.359375 2.87646484 C3.98295898 3.41040863 4.60654297 3.94435242 5.24902344 4.49447632 C7.19980768 6.17179853 9.12710657 7.86080128 11 9.625 C11.598125 10.17414063 12.19625 10.72328125 12.8125 11.2890625 C14 13 14 13 14.0234375 14.91796875 C12.51394413 17.98880832 10.2899228 19.57164922 7.625 21.6875 C6.64789063 22.47511719 5.67078125 23.26273438 4.6640625 24.07421875 C2 26 2 26 -1 27 C-1 27.66 -1 28.32 -1 29 C-2.328125 30.33984375 -2.328125 30.33984375 -4.25 31.9375 C-7.93475812 35.06594473 -11.51241445 38.28383281 -15.0625 41.5625 C-16.09466472 42.50693394 -17.12720829 43.45095402 -18.16015625 44.39453125 C-19.846447 45.94165083 -21.5243706 47.49810517 -23.18359375 49.07421875 C-25 50.75 -25 50.75 -28 53 C-31.20873824 52.67183359 -31.85789385 52.16875105 -34 49.625 C-34.99 48.325625 -34.99 48.325625 -36 47 C-38.12603185 45.23676495 -38.12603185 45.23676495 -40 44 C-39.49054594 39.75861229 -38.32653136 37.83358562 -35.30639648 34.85229492 C-34.52566269 34.07186325 -33.74492889 33.29143158 -32.9405365 32.48735046 C-32.09262039 31.6600795 -31.24470428 30.83280853 -30.37109375 29.98046875 C-29.50686295 29.12189774 -28.64263214 28.26332672 -27.75221252 27.3787384 C-24.98988468 24.63879994 -22.21397396 21.91309554 -19.4375 19.1875 C-17.5622396 17.33230105 -15.68787914 15.47619197 -13.81445312 13.61914062 C-9.22002561 9.06881472 -4.61436846 4.53009823 0 0 Z " fill="#F8FDFD" transform="translate(356,154)"/>
<path d="M0 0 C0 0.66 0 1.32 0 2 C1.32 2.33 2.64 2.66 4 3 C4 3.99 4 4.98 4 6 C3.01 6 2.02 6 1 6 C1 5.34 1 4.68 1 4 C-0.32 4 -1.64 4 -3 4 C-3 5.32 -3 6.64 -3 8 C-2.21625 8.144375 -1.4325 8.28875 -0.625 8.4375 C2 9 2 9 4 10 C4 11.98 4 13.96 4 16 C6.64 17.32 9.28 18.64 12 20 C11.49433723 24.42454924 10.17476823 26.87199596 7 30 C3.72265625 30.55859375 3.72265625 30.55859375 0.0625 30.4375 C-1.14277344 30.41558594 -2.34804688 30.39367187 -3.58984375 30.37109375 C-6.78452508 30.02344802 -9.11266776 29.36422339 -12 28 C-9.67122429 30.88214816 -8.46661382 31.91208725 -4.765625 32.609375 C-3.60546875 32.65578125 -2.4453125 32.7021875 -1.25 32.75 C0.50570313 32.83507812 0.50570313 32.83507812 2.296875 32.921875 C3.63492187 32.96054688 3.63492187 32.96054688 5 33 C3.35 35.97 1.7 38.94 0 42 C-4.54805635 42.17835515 -7.8794254 41.99785435 -12 40 C-11.67 40.99 -11.34 41.98 -11 43 C-9.12612784 43.80212628 -9.12612784 43.80212628 -6.9375 44.1875 C-5.83728516 44.42533203 -5.83728516 44.42533203 -4.71484375 44.66796875 C-4.14894531 44.77753906 -3.58304687 44.88710937 -3 45 C-3.99 47.475 -3.99 47.475 -5 50 C-11.75 49.25 -11.75 49.25 -14 47 C-14.48609303 42.70645058 -14.37039913 38.38041918 -14.375 34.0625 C-14.39949219 32.85658203 -14.42398437 31.65066406 -14.44921875 30.40820312 C-14.45308594 29.25384766 -14.45695312 28.09949219 -14.4609375 26.91015625 C-14.46915527 25.84933838 -14.47737305 24.78852051 -14.48583984 23.69555664 C-14 21 -14 21 -12.15869141 19.13061523 C-10 18 -10 18 -7 18 C-7 19.32 -7 20.64 -7 22 C-4.36 22 -1.72 22 1 22 C0.67 21.34 0.34 20.68 0 20 C-0.66 20 -1.32 20 -2 20 C-2 19.01 -2 18.02 -2 17 C-3.32 16.67 -4.64 16.34 -6 16 C-6 15.01 -6 14.02 -6 13 C-5.34 13 -4.68 13 -4 13 C-4 13.66 -4 14.32 -4 15 C-2.35 15 -0.7 15 1 15 C1 14.01 1 13.02 1 12 C0.030625 11.690625 -0.93875 11.38125 -1.9375 11.0625 C-5 10 -5 10 -6 9 C-6.3125 6.125 -6.3125 6.125 -6 3 C-3.95959224 0.95959224 -2.91674756 0 0 0 Z " fill="#F5FCFD" transform="translate(303,168)"/>
<path d="M0 0 C2.64 0 5.28 0 8 0 C8 0.66 8 1.32 8 2 C8.66 2.33 9.32 2.66 10 3 C9.154375 3.721875 8.30875 4.44375 7.4375 5.1875 C4.75774742 7.69574292 4.75774742 7.69574292 4.875 10.5 C6.32743546 13.72763435 8.44917145 15.57360211 11 18 C12.3125 20.3125 12.3125 20.3125 13 22 C10.59310197 24.72675159 8.07528977 26.11966596 4.8125 27.6875 C3.46091797 28.34298828 3.46091797 28.34298828 2.08203125 29.01171875 C1.05142578 29.50091797 1.05142578 29.50091797 0 30 C0 30.66 0 31.32 0 32 C-2.31 32.66 -4.62 33.32 -7 34 C-6.67 34.99 -6.34 35.98 -6 37 C-20.52 37 -35.04 37 -50 37 C-50 36.67 -50 36.34 -50 36 C-37.46 35.67 -24.92 35.34 -12 35 C-12 34.01 -12 33.02 -12 32 C-12.66 31.67 -13.32 31.34 -14 31 C-13.34 29.68 -12.68 28.36 -12 27 C-14.64 26.67 -17.28 26.34 -20 26 C-20.33 24.68 -20.66 23.36 -21 22 C-15.06 22.99 -15.06 22.99 -9 24 C-8.34 22.35 -7.68 20.7 -7 19 C-6.34 18.01 -5.68 17.02 -5 16 C-5.81984375 15.96261719 -6.6396875 15.92523438 -7.484375 15.88671875 C-8.56203125 15.82097656 -9.6396875 15.75523437 -10.75 15.6875 C-11.81734375 15.62949219 -12.8846875 15.57148438 -13.984375 15.51171875 C-17.19968194 14.96611615 -18.69129094 14.26948342 -21 12 C-21 11.34 -21 10.68 -21 10 C-20.32066406 10.15726563 -19.64132812 10.31453125 -18.94140625 10.4765625 C-15.57871891 11.07496901 -12.3520972 11.28004863 -8.9375 11.375 C-7.12572266 11.44847656 -7.12572266 11.44847656 -5.27734375 11.5234375 C-1.83716852 11.3019138 -1.83716852 11.3019138 0.38671875 8.62109375 C1.81160384 6.30608674 2.60554449 4.6625747 3 2 C2.01 1.67 1.02 1.34 0 1 C0 0.67 0 0.34 0 0 Z " fill="#B5DBDC" transform="translate(312,186)"/>
<path d="M0 0 C1.72819473 -0.00856522 1.72819473 -0.00856522 3.49130249 -0.01730347 C4.74644653 -0.01842133 6.00159058 -0.01953918 7.29476929 -0.02069092 C8.6372491 -0.02532314 9.9797276 -0.03034834 11.32220459 -0.03573608 C14.96302637 -0.04882613 18.60382973 -0.05529879 22.24467134 -0.05974674 C24.52342123 -0.06268391 26.80216616 -0.06679 29.08091354 -0.07125092 C36.22231256 -0.08491901 43.36370015 -0.09458814 50.50511134 -0.09845281 C58.72653735 -0.10292727 66.94779659 -0.1204495 75.16917193 -0.1494534 C81.53797287 -0.17113518 87.90672713 -0.1811606 94.27556455 -0.18249393 C98.07260587 -0.18353763 101.86949027 -0.18935167 105.66649246 -0.20731354 C109.24361674 -0.22390631 112.82046807 -0.22589607 116.39761734 -0.21717453 C118.31943005 -0.21604848 120.24123415 -0.22968032 122.16299438 -0.243927 C129.64038679 -0.20830595 136.13669483 0.76074221 143.23373413 3.14044189 C141.3930769 4.19430447 141.3930769 4.19430447 139.23373413 5.14044189 C138.39240433 4.85604752 137.55107452 4.57165314 136.68424988 4.27864075 C131.77996807 2.66089768 127.15615746 2.88652489 122.02548218 2.92926025 C120.90408844 2.93057449 119.7826947 2.93188873 118.62731934 2.9332428 C114.91661153 2.93973539 111.20610979 2.96019178 107.49545288 2.98028564 C104.8959119 2.98656424 102.29636822 2.99180161 99.69682312 2.99604797 C93.53605664 3.00742552 87.37536328 3.02812307 81.21463758 3.05294567 C69.60368295 3.09970732 57.99271484 3.13309918 46.38169289 3.15744209 C42.60631779 3.16749057 38.83102434 3.18457239 35.05567932 3.20243835 C19.75617704 3.25511773 4.51488179 2.8965652 -10.76626587 2.14044189 C-10.76626587 1.81044189 -10.76626587 1.48044189 -10.76626587 1.14044189 C-7.11685373 0.30259094 -3.74116908 0.01114249 0 0 Z " fill="#D1EDE5" transform="translate(270.7662658691406,81.85955810546875)"/>
<path d="M0 0 C0 0.66 0 1.32 0 2 C0.639375 2.28875 1.27875 2.5775 1.9375 2.875 C4 4 4 4 5 6 C4.40574219 5.81824219 3.81148438 5.63648438 3.19921875 5.44921875 C2.37035156 5.19785156 1.54148437 4.94648438 0.6875 4.6875 C-0.11300781 4.44386719 -0.91351563 4.20023438 -1.73828125 3.94921875 C-2.81464844 3.63597656 -3.89101563 3.32273438 -5 3 C-5.71776611 2.75733398 -6.43553223 2.51466797 -7.17504883 2.26464844 C-16.02620891 -0.50986122 -24.86760787 -0.7434848 -34.0625 -1.125 C-36.4647637 -1.23328595 -38.86678509 -1.34507755 -41.2686615 -1.4616394 C-42.75194198 -1.53275922 -44.23548413 -1.59866086 -45.71925354 -1.65872192 C-50.77813999 -1.88907 -50.77813999 -1.88907 -53 -3 C-53 -3.66 -53 -4.32 -53 -5 C-34.50977383 -8.71796289 -17.03947335 -8.48734224 0 0 Z " fill="#E3F7FA" transform="translate(280,171)"/>
<path d="M0 0 C-3.42689613 1.14229871 -4.03794265 0.84872958 -7.3125 -0.3125 C-17.900922 -3.64899556 -28.78833555 -4.23394191 -39.80810547 -4.65869141 C-45.24823522 -4.87183694 -50.59441436 -5.34395601 -56 -6 C-56 -6.99 -56 -7.98 -56 -9 C-35.95107807 -13.54220772 -17.40112798 -10.14514432 0 0 Z " fill="#E4F7FA" transform="translate(283,200)"/>
<path d="M0 0 C3.15835107 1.39750048 5.32272825 3.05198234 7.75 5.5 C8.67039062 6.41265625 8.67039062 6.41265625 9.609375 7.34375 C11 9 11 9 11 11 C-6.47572816 20 -6.47572816 20 -12 20 C-10.16640953 16.19911975 -8.08614892 12.54087763 -6 8.875 C-5.64421875 8.24207031 -5.2884375 7.60914063 -4.921875 6.95703125 C-3.44570081 4.36271019 -2.12083034 2.12083034 0 0 Z " fill="#F2FBFC" transform="translate(313,199)"/>
<path d="M0 0 C0 0.66 0 1.32 0 2 C1.32 2.33 2.64 2.66 4 3 C4 3.99 4 4.98 4 6 C3.01 6 2.02 6 1 6 C1 5.34 1 4.68 1 4 C-0.32 4 -1.64 4 -3 4 C-3 5.32 -3 6.64 -3 8 C-2.21625 8.144375 -1.4325 8.28875 -0.625 8.4375 C2 9 2 9 4 10 C3.95875 10.94875 3.9175 11.8975 3.875 12.875 C3.65026182 16.10244856 3.65026182 16.10244856 6 18 C4.68 18 3.36 18 2 18 C2 19.65 2 21.3 2 23 C-0.31 23 -2.62 23 -5 23 C-5 22.67 -5 22.34 -5 22 C-3.02 22 -1.04 22 1 22 C0.67 21.34 0.34 20.68 0 20 C-0.66 20 -1.32 20 -2 20 C-2 19.01 -2 18.02 -2 17 C-3.32 16.67 -4.64 16.34 -6 16 C-6 15.01 -6 14.02 -6 13 C-5.34 13 -4.68 13 -4 13 C-4 13.66 -4 14.32 -4 15 C-2.35 15 -0.7 15 1 15 C1 14.01 1 13.02 1 12 C0.030625 11.690625 -0.93875 11.38125 -1.9375 11.0625 C-5 10 -5 10 -6 9 C-6.3125 6.125 -6.3125 6.125 -6 3 C-3.95959224 0.95959224 -2.91674756 0 0 0 Z " fill="#E7FAFC" transform="translate(303,168)"/>
<path d="M0 0 C3.51843231 -0.45892595 5.34860502 -0.41140736 8.375 1.5 C8.91125 1.995 9.4475 2.49 10 3 C9.67 4.98 9.34 6.96 9 9 C8.34 9 7.68 9 7 9 C7 9.66 7 10.32 7 11 C5.35 11.66 3.7 12.32 2 13 C0.02 11.02 -1.96 9.04 -4 7 C-2.79618552 4.50638429 -1.54571278 2.31856917 0 0 Z " fill="#F4FCFC" transform="translate(365,149)"/>
<path d="M0 0 C3.13165208 2.89917136 5.22455179 5.82505564 7.375 9.5 C10.17537248 14.03249943 12.37237487 16.46582433 17 19 C17.33 19.66 17.66 20.32 18 21 C19.97888961 21.72693904 21.97954558 22.39816251 24 23 C24 23.66 24 24.32 24 25 C24.71027344 25.12117188 25.42054688 25.24234375 26.15234375 25.3671875 C27.07144531 25.53476562 27.99054688 25.70234375 28.9375 25.875 C29.85402344 26.03742188 30.77054687 26.19984375 31.71484375 26.3671875 C32.46894531 26.57601563 33.22304688 26.78484375 34 27 C34.495 27.99 34.495 27.99 35 29 C25.13454067 28.62055926 15.99161988 23.83440768 8.82421875 17.1328125 C4.85149091 12.48803863 0 6.27250629 0 0 Z " fill="#BFDAD6" transform="translate(229,262)"/>
<path d="M0 0 C0.33 0 0.66 0 1 0 C1.13277344 0.62648437 1.26554687 1.25296875 1.40234375 1.8984375 C1.57894531 2.71570313 1.75554687 3.53296875 1.9375 4.375 C2.11152344 5.18710938 2.28554688 5.99921875 2.46484375 6.8359375 C2.92330693 9.029463 2.92330693 9.029463 4 11 C3.01 11 2.02 11 1 11 C1.66 14.63 2.32 18.26 3 22 C5.64 22.66 8.28 23.32 11 24 C10.01 26.475 10.01 26.475 9 29 C2.25 28.25 2.25 28.25 0 26 C-0.22705078 23.38623047 -0.22705078 23.38623047 -0.1953125 20.1171875 C-0.18886719 18.95058594 -0.18242187 17.78398437 -0.17578125 16.58203125 C-0.15902344 15.35871094 -0.14226562 14.13539063 -0.125 12.875 C-0.11597656 11.64394531 -0.10695313 10.41289062 -0.09765625 9.14453125 C-0.07402548 6.09616185 -0.04108054 3.04817618 0 0 Z " fill="#EEFCFC" transform="translate(289,189)"/>
<path d="M0 0 C2.38079554 3.57119331 3.12612106 6.0016862 3.11352539 10.19604492 C3.11344986 11.03668991 3.11337433 11.8773349 3.11329651 12.74345398 C3.10813522 13.64666885 3.10297394 14.54988373 3.09765625 15.48046875 C3.0962413 16.40845779 3.09482635 17.33644684 3.09336853 18.29255676 C3.08776937 21.25757058 3.07521704 24.22250899 3.0625 27.1875 C3.05748489 29.19726453 3.052922 31.20703025 3.04882812 33.21679688 C3.03780021 38.14456032 3.02053617 43.07226737 3 48 C-3.75 48.125 -3.75 48.125 -6 47 C-5.67 46.34 -5.34 45.68 -5 45 C-3.02 45.33 -1.04 45.66 1 46 C1.02519558 41.85978559 1.04308741 37.71961477 1.05493164 33.5793457 C1.05988235 32.17829611 1.06664464 30.77725144 1.07543945 29.3762207 C1.13555718 19.5345944 0.78606217 9.81292721 0 0 Z " fill="#BFDDDD" transform="translate(438,110)"/>
<path d="M0 0 C5.28 0.33 10.56 0.66 16 1 C16 1.33 16 1.66 16 2 C10.97874074 2.77916092 7.02296004 3.13016601 2 2 C2.01160156 2.7734375 2.02320313 3.546875 2.03515625 4.34375 C2.08709845 10.33936364 1.91184156 16.07302983 1 22 C2.32 22.33 3.64 22.66 5 23 C3.35 23 1.7 23 0 23 C0 15.41 0 7.82 0 0 Z " fill="#BFDDDF" transform="translate(227,168)"/>
<path d="M0 0 C1.32 0 2.64 0 4 0 C4 0.66 4 1.32 4 2 C4.61875 2.04125 5.2375 2.0825 5.875 2.125 C8 3 8 3 9.1875 5.75 C9.87334275 8.49337098 10.50863699 11.21560963 11 14 C9.35 13.67 7.7 13.34 6 13 C6.33 10.69 6.66 8.38 7 6 C4.69 5.34 2.38 4.68 0 4 C0 2.68 0 1.36 0 0 Z " fill="#BBDCDE" transform="translate(300,172)"/>
<path d="M0 0 C0.66 0 1.32 0 2 0 C2 0.66 2 1.32 2 2 C3.65 2 5.3 2 7 2 C7.33 1.34 7.66 0.68 8 0 C8 0.66 8 1.32 8 2 C9.32 2.66 10.64 3.32 12 4 C10.68 4.33 9.36 4.66 8 5 C8 6.65 8 8.3 8 10 C5.69 10 3.38 10 1 10 C1 9.67 1 9.34 1 9 C2.98 9 4.96 9 7 9 C6.67 8.34 6.34 7.68 6 7 C5.34 7 4.68 7 4 7 C4 6.01 4 5.02 4 4 C2.68 3.67 1.36 3.34 0 3 C0 2.01 0 1.02 0 0 Z " fill="#DDF4F4" transform="translate(297,181)"/>
<path d="M0 0 C16.8929385 -0.18451025 16.8929385 -0.18451025 24 1 C24 1.33 24 1.66 24 2 C22.92878906 1.98839844 21.85757812 1.97679687 20.75390625 1.96484375 C19.35677257 1.95546701 17.95963701 1.94636669 16.5625 1.9375 C15.85544922 1.92912109 15.14839844 1.92074219 14.41992188 1.91210938 C12.61306441 1.90346412 10.80612397 1.94779989 9 2 C8.67 2.33 8.34 2.66 8 3 C5.66702567 3.04092937 3.33294775 3.04241723 1 3 C0.67 2.01 0.34 1.02 0 0 Z " fill="#B8DFE3" transform="translate(240,195)"/>
<path d="M0 0 C0.99 0.33 1.98 0.66 3 1 C0.63483137 6.54808173 -1.91235274 11.81716353 -5 17 C-5.33 15.68 -5.66 14.36 -6 13 C-5.34 13 -4.68 13 -4 13 C-3.896875 12.34 -3.79375 11.68 -3.6875 11 C-2.80786436 7.16158991 -1.43030104 3.66903309 0 0 Z " fill="#C5DEDE" transform="translate(438,258)"/>
<path d="M0 0 C2.99876322 2.80319171 5.16322727 5.59434917 7.25 9.125 C8.03117188 10.42824219 8.03117188 10.42824219 8.828125 11.7578125 C10 14 10 14 10 16 C5.95421176 14.65140392 5.4029667 12.78002983 3.3125 9.125 C2.68988281 8.05507813 2.06726563 6.98515625 1.42578125 5.8828125 C0 3 0 3 0 0 Z " fill="#C5E0E0" transform="translate(229,262)"/>
<path d="M0 0 C0.66 0.33 1.32 0.66 2 1 C1.57847656 1.51949219 1.15695313 2.03898437 0.72265625 2.57421875 C-3.43428979 7.70146308 -3.43428979 7.70146308 -5 14 C-5.66 14 -6.32 14 -7 14 C-7.33 14.99 -7.66 15.98 -8 17 C-8.66 17 -9.32 17 -10 17 C-8.0727631 10.25467085 -4.41448632 5.36044767 0 0 Z " fill="#D0E8E8" transform="translate(240,93)"/>
<path d="M0 0 C0.33 0 0.66 0 1 0 C1.13277344 0.62648437 1.26554687 1.25296875 1.40234375 1.8984375 C1.57894531 2.71570313 1.75554687 3.53296875 1.9375 4.375 C2.11152344 5.18710938 2.28554688 5.99921875 2.46484375 6.8359375 C2.92330693 9.029463 2.92330693 9.029463 4 11 C3.01 11 2.02 11 1 11 C1 15.95 1 20.9 1 26 C0.67 26 0.34 26 0 26 C0 17.42 0 8.84 0 0 Z " fill="#DEF6F7" transform="translate(289,189)"/>
<path d="M0 0 C0.33 0 0.66 0 1 0 C1.49230769 7.38461538 1.49230769 7.38461538 -1 10.5 C-1.66 10.995 -2.32 11.49 -3 12 C-3.66 11.67 -4.32 11.34 -5 11 C-3.35 7.37 -1.7 3.74 0 0 Z " fill="#B9DDE2" transform="translate(372,203)"/>
<path d="M0 0 C1.32 0 2.64 0 4 0 C4 0.99 4 1.98 4 3 C4.66 3 5.32 3 6 3 C6.33 2.34 6.66 1.68 7 1 C7 2.32 7 3.64 7 5 C5.02 5 3.04 5 1 5 C0.67 3.35 0.34 1.7 0 0 Z " fill="#B0DBD9" transform="translate(297,185)"/>
<path d="M0 0 C0 3.31934673 -0.43709146 4.02487607 -2.3125 6.625 C-2.95638672 7.54152344 -2.95638672 7.54152344 -3.61328125 8.4765625 C-5 10 -5 10 -8 11 C-6.63629701 8.00779732 -5.05091917 5.70973471 -2.875 3.25 C-2.33617187 2.63640625 -1.79734375 2.0228125 -1.2421875 1.390625 C-0.62730469 0.70226562 -0.62730469 0.70226562 0 0 Z " fill="#B4DBDD" transform="translate(393,158)"/>
<path d="M0 0 C4.10839064 1.45002023 7.50344613 3.3979134 11 6 C11 6.66 11 7.32 11 8 C8.625 7.6875 8.625 7.6875 6 7 C5.34 6.01 4.68 5.02 4 4 C3.01 3.67 2.02 3.34 1 3 C0.67 2.01 0.34 1.02 0 0 Z " fill="#CCE7E7" transform="translate(417,87)"/>
<path d="M0 0 C3.125 -0.1875 3.125 -0.1875 6 0 C5.401875 0.2475 4.80375 0.495 4.1875 0.75 C1.63486469 2.20864875 0.43267442 3.43626682 -1 6 C-0.78282648 8.20800528 -0.78282648 8.20800528 0 10 C-1.32 9.01 -2.64 8.02 -4 7 C-2.79618552 4.50638429 -1.54571278 2.31856917 0 0 Z " fill="#E5FAFB" transform="translate(365,149)"/>
<path d="M0 0 C0 0.66 0 1.32 0 2 C-7.42857143 4.42857143 -7.42857143 4.42857143 -11 3 C-4.5 0 -4.5 0 0 0 Z " fill="#CEE8E8" transform="translate(260,84)"/>
<path d="M0 0 C0.97353743 3.02878312 1.24612776 5.02846457 0 8 C-2.0625 9.75 -2.0625 9.75 -4 11 C-3.71125 10.29875 -3.4225 9.5975 -3.125 8.875 C-1.97866412 5.94547497 -0.97374346 2.99078347 0 0 Z " fill="#E4F8F9" transform="translate(369,186)"/>
<path d="M0 0 C-0.33 0.99 -0.66 1.98 -1 3 C-1.66 3 -2.32 3 -3 3 C-4.63676257 4.9600281 -4.63676257 4.9600281 -6 7 C-6.1875 4.625 -6.1875 4.625 -6 2 C-3 0 -3 0 0 0 Z " fill="#EBFCFC" transform="translate(296,186)"/>
</svg>
